<svg width="1200" height="630" viewBox="0 0 1200 630" fill="none" xmlns="http://www.w3.org/2000/svg">
  <rect width="1200" height="630" fill="#18181b"/>
  <rect x="50" y="50" width="1100" height="530" rx="20" fill="#27272a" stroke="#f59e0b" stroke-width="2"/>
  
  <!-- Plane icon -->
  <g transform="translate(100, 100) scale(3)">
    <path d="M17.8 19.2 16 11l3.5-3.5C21 6 21.5 4 21 3c-1-.5-3 0-4.5 1.5L13 8 4.8 6.2c-.5-.1-.9.1-1.1.5l-.3.5c-.2.5-.1 1.1.4 1.5L9 12l-2 3H4l-1 1 3 2 2 3 1-1v-3l3-2 3.5 5.3c.4.5 1 .6 1.5.4l.5-.3c.4-.3.6-.7.5-1.2z" fill="#f59e0b"/>
  </g>
  
  <!-- Title -->
  <text x="350" y="250" font-family="Inter, system-ui, sans-serif" font-size="48" fill="#f59e0b" font-weight="bold">EgoTrip</text>
  <text x="350" y="300" font-family="Inter, system-ui, sans-serif" font-size="24" fill="#ffffff">Sophisticated Travel for the Discerning</text>
  
  <!-- Description -->
  <text x="350" y="350" font-family="Inter, system-ui, sans-serif" font-size="18" fill="#a1a1aa">For the discerning traveler who refuses to settle</text>
  <text x="350" y="380" font-family="Inter, system-ui, sans-serif" font-size="18" fill="#a1a1aa">for pedestrian weather. We've prepared sophisticated</text>
  <text x="350" y="410" font-family="Inter, system-ui, sans-serif" font-size="18" fill="#a1a1aa">alternatives for those who understand that weather... matters.</text>
  
  <!-- URL -->
  <text x="350" y="480" font-family="Inter, system-ui, sans-serif" font-size="16" fill="#f59e0b">egotrip.vercel.app</text>
</svg>
